<svg xmlns="http://www.w3.org/2000/svg" width="24" height="24" viewBox="0 0 24 24">
    <circle cx="12" cy="12" r="12" fill="#181717"/>
    <path fill="#ffffff" d="M12 2.25c-5.5 0-9.75 4.47-9.75 9.98c0 4.41 2.87 8.15 6.84 9.47c.5.1.68-.22.68-.48
    c0-.24-.01-1.02-.01-1.85c-2.48.55-3.01-1.09-3.01-1.09c-.45-1.18-1.1-1.5-1.1-1.5c-.9-.64.07-.63.07-.63
    c1 .07 1.53 1.05 1.53 1.05c.89 1.57 2.34 1.12 2.91.86c.09-.66.35-1.12.63-1.38c-2-.24-4.1-1.05-4.1-4.69
    c0-1.04.36-1.89.97-2.56c-.1-.24-.43-1.23.09-2.55c0 0 .82-.27 2.7 1c.78-.22 1.62-.33 2.45-.33c.83 0 1.67.11 2.45.33
    c1.88-1.27 2.7-1 2.7-1c.52 1.32.19 2.31.09 2.55c.61.67.97 1.52.97 2.56c0 3.65-2.11 4.44-4.12 4.68c.36.32.68.93.68 1.89
    c0 1.36-.01 2.46-.01 2.79c0 .26.18.58.69.48c3.96-1.32 6.83-5.06 6.83-9.47c0-5.51-4.25-9.98-9.75-9.98z"/>
</svg>
